<?xml version="1.0" encoding="utf-8"?>
<!-- Generator: Adobe Illustrator 26.0.1, SVG Export Plug-In . SVG Version: 6.00 Build 0)  -->
<svg version="1.1" xmlns="http://www.w3.org/2000/svg" xmlns:xlink="http://www.w3.org/1999/xlink" x="0px" y="0px"
	 viewBox="0 0 258 107" style="enable-background:new 0 0 258 107;" xml:space="preserve">
<style type="text/css">
	.st0{fill:none;stroke:#000000;stroke-width:15;stroke-miterlimit:10;}
	.st1{fill:#870AA0;}
	.st2{fill:none;stroke:#FA1996;stroke-width:15;stroke-miterlimit:10;}
	.st3{fill:none;stroke:#870AA0;stroke-width:15;stroke-miterlimit:10;}
	.st4{fill:#FA1996;}
	.st5{fill:#FF5F0A;}
	.st6{fill:none;stroke:#FF5F0A;stroke-width:15;stroke-miterlimit:10;}
</style>
<g id="Layer_4">
</g>
<g id="Layer_4_copy">
	<g>
		<path d="M184.23,51.34c7.58,0,13.75,6.62,13.75,14.75h15c0-16.43-12.87-29.75-28.75-29.75l0,0c-15.88,0-28.75,13.32-28.75,29.75
			h15C170.48,57.96,176.65,51.34,184.23,51.34"/>
		<path class="st0" d="M93.81,11.75c0,53.22,0,23.09,0,53.22s0,30.12,0,30.12l0,0"/>
		<path class="st0" d="M66.34,35.75c0,59,0,9.98,0,59"/>
		<path class="st0" d="M119.98,35.75c0,59,0,9.98,0,59"/>
		<circle cx="231.48" cy="21.75" r="10"/>
		<rect x="197.98" y="66.09" width="15" height="28.66"/>
		<rect x="154.98" y="66.09" width="15.5" height="28.66"/>
		<path d="M45.23,50.75c7.58,0,13.75,6.62,13.75,14.75s-6.17,14.75-13.75,14.75S31.48,73.63,31.48,65.5S37.65,50.75,45.23,50.75
			 M45.23,35.75c-15.88,0-28.75,13.32-28.75,29.75s12.87,29.75,28.75,29.75S73.98,81.93,73.98,65.5S61.11,35.75,45.23,35.75
			L45.23,35.75z"/>
		<path d="M141.23,51.34c7.58,0,13.75,6.62,13.75,14.75h15c0-16.43-12.87-29.75-28.75-29.75l0,0c-15.88,0-28.75,13.32-28.75,29.75
			h15C127.48,57.96,133.65,51.34,141.23,51.34"/>
		<line class="st0" x1="231.98" y1="36.34" x2="231.98" y2="95.09"/>
		<path class="st1" d="M184.23,51.34c7.58,0,13.75,6.62,13.75,14.75h15c0-16.43-12.87-29.75-28.75-29.75l0,0
			c-15.88,0-28.75,13.32-28.75,29.75h15C170.48,57.96,176.65,51.34,184.23,51.34"/>
		<path class="st2" d="M93.81,11.75c0,23.21,0,10.07,0,23.21s0,13.14,0,13.14l0,0"/>
		<path class="st3" d="M66.34,35.75c0,59,0,9.98,0,59"/>
		<path class="st3" d="M119.98,35.75c0,59,0,9.98,0,59"/>
		<circle class="st4" cx="231.48" cy="21.75" r="10"/>
		<rect x="197.98" y="66.09" class="st4" width="15" height="28.66"/>
		<rect x="154.98" y="66.09" class="st4" width="15.5" height="28.66"/>
		<path class="st4" d="M45.23,50.75c7.58,0,13.75,6.62,13.75,14.75s-6.17,14.75-13.75,14.75S31.48,73.63,31.48,65.5
			S37.65,50.75,45.23,50.75 M45.23,35.75c-15.88,0-28.75,13.32-28.75,29.75s12.87,29.75,28.75,29.75S73.98,81.93,73.98,65.5
			S61.11,35.75,45.23,35.75L45.23,35.75z"/>
		<line class="st3" x1="93.81" y1="48.09" x2="93.81" y2="94.75"/>
		<path class="st5" d="M141.23,51.34c7.58,0,13.75,6.62,13.75,14.75h15c0-16.43-12.87-29.75-28.75-29.75l0,0
			c-15.88,0-28.75,13.32-28.75,29.75h15C127.48,57.96,133.65,51.34,141.23,51.34"/>
		<path class="st6" d="M231.98,60.09v11.42c0,5.94,0,1.01,0,5.94v5.64"/>
		<line class="st2" x1="231.98" y1="36.34" x2="231.98" y2="60.09"/>
		<line class="st3" x1="231.98" y1="95.09" x2="231.98" y2="83.09"/>
	</g>
</g>
<g id="Layer_3">
</g>
</svg>
