<svg id="Layer_1_copy" data-name="Layer 1 copy" xmlns="http://www.w3.org/2000/svg" viewBox="0 0 151.96 138.55"><defs><style>.cls-1,.cls-4{fill:none;}.cls-2{fill:#00be5f;}.cls-3{fill:#e3273f;}.cls-4{stroke:#939292;stroke-miterlimit:10;stroke-width:5px;}</style></defs><path class="cls-1" d="M49,32.07,25.93,59a17.67,17.67,0,0,0,12.93,5.64h.35L55.9,41.74A18,18,0,0,0,49,32.07Z"/><path class="cls-1" d="M56.62,46.75a18,18,0,0,0-.72-5L39.21,64.58A17.82,17.82,0,0,0,56.62,46.75Z"/><path class="cls-1" d="M38.86,28.9A17.84,17.84,0,0,0,25.93,59L49,32.07A17.64,17.64,0,0,0,38.86,28.9Z"/><path class="cls-2" d="M38.86,64.59A17.67,17.67,0,0,1,25.93,59l-3.28,3.83A22.69,22.69,0,0,0,35.7,69.37l3.51-4.79Z"/><path class="cls-2" d="M55.9,41.74a18,18,0,0,1,.72,5A17.82,17.82,0,0,1,39.21,64.58L35.7,69.37a23.62,23.62,0,0,0,3.16.22A22.87,22.87,0,0,0,59.42,36.93Z"/><path class="cls-2" d="M21.1,46.75A17.82,17.82,0,0,1,38.86,28.9,17.64,17.64,0,0,1,49,32.07l3.27-3.82A22.81,22.81,0,0,0,22.65,62.78L25.93,59A17.81,17.81,0,0,1,21.1,46.75Z"/><polygon class="cls-2" points="39.7 47.4 58.06 25.96 59.42 24.52 60.96 23.34 62.22 22.61 63.22 22.52 64.03 22.8 64.04 23.23 58.99 31.8 43.6 55.45 42.62 56.69 41.51 57.74 40.72 58.2 39.74 58.33 38.63 58.26 37.91 58 37.25 57.61 36.6 57.02 35.94 56.36 35.22 55.38 27.1 43.98 26.12 42.74 26.12 41.89 26.58 40.97 27.1 40.32 27.69 39.6 28.54 38.81 29.39 38.35 30.44 37.76 31.36 37.76 32.37 38.09 39.7 47.4"/><path class="cls-1" d="M113.73,76.79l-23,26.87a17.66,17.66,0,0,0,12.93,5.65l.35,0,16.69-22.83A17.89,17.89,0,0,0,113.73,76.79Z"/><path class="cls-1" d="M121.4,91.46a17.88,17.88,0,0,0-.72-5L104,109.29A17.82,17.82,0,0,0,121.4,91.46Z"/><path class="cls-1" d="M103.64,73.61a17.84,17.84,0,0,0-12.93,30.05l23-26.87A17.58,17.58,0,0,0,103.64,73.61Z"/><path class="cls-3" d="M103.64,109.31a17.66,17.66,0,0,1-12.93-5.65l-3.28,3.83a22.63,22.63,0,0,0,13,6.59l3.51-4.79Z"/><path class="cls-3" d="M120.68,86.46A17.82,17.82,0,0,1,104,109.29l-3.51,4.79a22.07,22.07,0,0,0,3.16.23A22.88,22.88,0,0,0,124.2,81.64Z"/><path class="cls-3" d="M85.88,91.46a17.83,17.83,0,0,1,17.76-17.85,17.58,17.58,0,0,1,10.09,3.18L117,73a22.58,22.58,0,0,0-13.36-4.36,22.86,22.86,0,0,0-16.21,38.88l3.28-3.83A17.85,17.85,0,0,1,85.88,91.46Z"/><polygon class="cls-3" points="97.59 80.24 104.81 87.94 125 69.42 126.05 68.82 127.94 68.63 128.59 68.78 129.29 69.35 129.75 69.99 129.75 70.62 107.97 92.13 113.95 99.34 114.17 100.13 114.31 100.85 114.24 101.5 113.95 102.22 113.52 102.8 112.87 103.37 111.93 103.73 111.14 103.88 110.49 103.73 103.5 96.31 96.37 102.87 95.57 103.16 94.63 103.01 93.98 102.73 93.41 102.29 92.9 101.64 92.47 100.71 92.33 99.77 92.54 99.05 99.97 91.7 93.55 84.13 93.48 82.97 93.55 81.75 93.98 80.96 94.78 80.45 95.64 80.16 96.44 79.95 97.59 80.24"/><line class="cls-4" x1="119.51" y1="20.31" x2="38.66" y2="109.99"/></svg>