<svg id="Layer_1_copy" data-name="Layer 1 copy" xmlns="http://www.w3.org/2000/svg" viewBox="0 0 159.85 84.63"><defs><style>.cls-1{font-size:16px;font-family:SofiaPro-Bold, Sofia Pro;font-weight:700;}.cls-2{letter-spacing:-0.09em;}.cls-3{letter-spacing:-0.02em;}.cls-4{letter-spacing:0em;}.cls-10,.cls-5{fill:none;}.cls-6,.cls-7,.cls-8{fill:#fa1996;}.cls-6{opacity:0.3;}.cls-8{opacity:0.7;}.cls-9{fill:#020001;}.cls-10{stroke:#020202;stroke-miterlimit:10;stroke-width:3px;}</style></defs><text class="cls-1" transform="translate(3.82 78.37)">KREDITUPP<tspan class="cls-2" x="85.05" y="0">L</tspan><tspan class="cls-3" x="91.65" y="0">Y</tspan><tspan class="cls-4" x="101.98" y="0">SNING</tspan></text><path class="cls-5" d="M80.12,27.4a31.09,31.09,0,0,0-22.33,9.44L80.55,59.6l22.32-22.32A31.11,31.11,0,0,0,80.12,27.4Z"/><path class="cls-6" d="M28.92,58.59h20a31.08,31.08,0,0,1,8.87-21.75L43.64,22.69A51,51,0,0,0,28.92,58.59Z"/><path class="cls-7" d="M111.31,58.59h20A51,51,0,0,0,117,23.13L102.87,37.28A31.06,31.06,0,0,1,111.31,58.59Z"/><path class="cls-8" d="M80.12,27.4a31.11,31.11,0,0,1,22.75,9.88L117,23.13a51.15,51.15,0,0,0-73.38-.44L57.79,36.84A31.09,31.09,0,0,1,80.12,27.4Z"/><circle class="cls-9" cx="80.08" cy="57.63" r="3.24"/><line class="cls-10" x1="80.08" y1="57.63" x2="115.03" y2="41.72"/></svg>