<svg xmlns="http://www.w3.org/2000/svg" viewBox="0 0 875.2 517.82"><defs><style>.cls-1,.cls-18,.cls-27,.cls-7{fill:#fa1996;}.cls-1,.cls-2,.cls-5,.cls-6{opacity:0.3;}.cls-2,.cls-22,.cls-8{fill:#00be5f;}.cls-12,.cls-14,.cls-3,.cls-5{fill:#870aa0;}.cls-20,.cls-4,.cls-6{fill:#ff5f0a;}.cls-9{fill:#e0dddc;}.cls-10,.cls-15{fill:#fff;}.cls-11{font-size:16px;}.cls-11,.cls-15{font-family:SofiaPro-Bold, Sofia Pro;font-weight:700;}.cls-12,.cls-14{stroke:#870aa0;}.cls-12,.cls-13,.cls-19,.cls-21,.cls-29,.cls-30,.cls-32{stroke-miterlimit:10;}.cls-12,.cls-13,.cls-19,.cls-21{stroke-width:8px;}.cls-13,.cls-19,.cls-21,.cls-26,.cls-29,.cls-30,.cls-32{fill:none;}.cls-13,.cls-18{stroke:#fa1996;}.cls-14,.cls-18,.cls-20,.cls-22{stroke-linecap:round;stroke-linejoin:round;stroke-width:11px;}.cls-15{font-size:33px;}.cls-16{letter-spacing:-0.02em;}.cls-17{letter-spacing:-0.02em;}.cls-19,.cls-20,.cls-30{stroke:#ff5f0a;}.cls-21,.cls-22{stroke:#00be5f;}.cls-23{letter-spacing:-0.09em;}.cls-24{letter-spacing:-0.02em;}.cls-25{letter-spacing:0em;}.cls-27{opacity:0.7;}.cls-28{fill:#020001;}.cls-29{stroke:#020202;}.cls-29,.cls-30{stroke-width:3px;}.cls-31{fill:#e3273f;}.cls-32{stroke:#939292;stroke-width:5px;}</style></defs><g id="Layer_3" data-name="Layer 3"><path class="cls-1" d="M338,178.77a80.81,80.81,0,0,1,80.72,80.72h39A119.72,119.72,0,0,0,338,139.77h0A119.72,119.72,0,0,0,218.23,259.49h39A80.81,80.81,0,0,1,338,178.77"/><path class="cls-2" d="M738.65,177.8a80.81,80.81,0,0,1,80.72,80.71h39A119.72,119.72,0,0,0,738.65,138.8h0A119.71,119.71,0,0,0,618.94,258.51h39a80.8,80.8,0,0,1,80.71-80.71"/><path class="cls-3" d="M137.64,176.34a80.81,80.81,0,0,1,80.71,80.72h39A119.72,119.72,0,0,0,137.64,137.34h0A119.72,119.72,0,0,0,17.92,257.06h39a80.81,80.81,0,0,1,80.72-80.72"/><path class="cls-4" d="M537.93,176.34a80.81,80.81,0,0,1,80.72,80.72h39A119.72,119.72,0,0,0,537.93,137.34h0A119.72,119.72,0,0,0,418.21,257.06h39a80.81,80.81,0,0,1,80.72-80.72"/><path class="cls-5" d="M137.64,338.15a80.81,80.81,0,0,1-80.72-80.72h-39A119.72,119.72,0,0,0,137.64,377.15h0A119.72,119.72,0,0,0,257.35,257.43h-39a80.81,80.81,0,0,1-80.71,80.72"/><path class="cls-6" d="M538,337.34a80.81,80.81,0,0,1-80.72-80.72h-39A119.72,119.72,0,0,0,538,376.34h0A119.72,119.72,0,0,0,657.74,256.62h-39A80.81,80.81,0,0,1,538,337.34"/><path class="cls-7" d="M338.14,337.34a80.81,80.81,0,0,1-80.72-80.72h-39A119.72,119.72,0,0,0,338.14,376.34h0A119.72,119.72,0,0,0,457.86,256.62h-39a80.81,80.81,0,0,1-80.72,80.72"/><path class="cls-8" d="M738.84,337.34a80.81,80.81,0,0,1-80.71-80.72h-39A119.72,119.72,0,0,0,738.84,376.34h0A119.72,119.72,0,0,0,858.56,256.62h-39a80.81,80.81,0,0,1-80.72,80.72"/><rect class="cls-9" x="90.37" y="206.16" width="91.48" height="102.39"/><rect class="cls-3" x="97.03" y="230.4" width="55.13" height="9.09"/><rect class="cls-10" x="97.03" y="241.91" width="79.72" height="3.34"/><rect class="cls-10" x="97.03" y="246.75" width="79.72" height="3.34"/><rect class="cls-10" x="96.77" y="251.52" width="79.72" height="3.34"/><rect class="cls-10" x="97.03" y="282.94" width="79.72" height="3.34"/><rect class="cls-3" x="97.03" y="276.36" width="60.32" height="4.1"/><rect class="cls-10" x="97.03" y="287.79" width="79.72" height="3.34"/><rect class="cls-10" x="96.77" y="292.55" width="79.72" height="3.34"/><rect class="cls-10" x="96.77" y="300.55" width="29.26" height="3.82"/><rect class="cls-10" x="146.8" y="300.55" width="29.26" height="3.82"/><rect class="cls-10" x="96.62" y="257.91" width="24.09" height="10.85"/><rect class="cls-10" x="124.42" y="257.91" width="24.09" height="10.85"/><rect class="cls-10" x="152.16" y="257.65" width="24.09" height="10.85"/><text class="cls-11" transform="translate(99.2 223.67)">ANSÖKAN</text><line class="cls-12" x1="138.29" y1="77.77" x2="138.29" y2="137.34"/><line class="cls-13" x1="338.06" y1="376.22" x2="338.06" y2="435.8"/><rect class="cls-14" x="57.28" y="22.92" width="162.35" height="49.48"/><text class="cls-15" transform="translate(89.08 56.73)"><tspan class="cls-16">S</tspan><tspan x="18.68" y="0">T</tspan><tspan class="cls-17" x="37.12" y="0">E</tspan><tspan x="55.57" y="0">G 1</tspan></text><rect class="cls-18" x="258.39" y="440.71" width="162.35" height="49.48"/><text class="cls-15" transform="translate(290.19 474.52)"><tspan class="cls-16">S</tspan><tspan x="18.68" y="0">T</tspan><tspan class="cls-17" x="37.12" y="0">E</tspan><tspan x="55.57" y="0">G 2</tspan></text><line class="cls-19" x1="537.5" y1="78.05" x2="537.5" y2="137.62"/><rect class="cls-20" x="456.49" y="23.2" width="162.35" height="49.48"/><text class="cls-15" transform="translate(488.29 57.01)"><tspan class="cls-16">S</tspan><tspan x="18.68" y="0">T</tspan><tspan class="cls-17" x="37.12" y="0">E</tspan><tspan x="55.57" y="0">G 3</tspan></text><line class="cls-21" x1="739.22" y1="376.42" x2="739.22" y2="436"/><rect class="cls-22" x="659.56" y="440.9" width="162.35" height="49.48"/><text class="cls-15" transform="translate(691.36 474.71)"><tspan class="cls-16">S</tspan><tspan x="18.68" y="0">T</tspan><tspan class="cls-17" x="37.12" y="0">E</tspan><tspan x="55.57" y="0">G 4</tspan></text><text class="cls-11" transform="translate(261.62 281.11)">KREDITUPP<tspan class="cls-23" x="85.05" y="0">L</tspan><tspan class="cls-24" x="91.65" y="0">Y</tspan><tspan class="cls-25" x="101.98" y="0">SNING</tspan></text><path class="cls-26" d="M337.91,230.14a31.1,31.1,0,0,0-22.33,9.44l22.76,22.76L360.66,240A31.13,31.13,0,0,0,337.91,230.14Z"/><path class="cls-1" d="M286.72,261.33h20a31.09,31.09,0,0,1,8.86-21.75l-14.15-14.15A51,51,0,0,0,286.72,261.33Z"/><path class="cls-7" d="M369.11,261.33h20a51,51,0,0,0-14.3-35.46L360.66,240A31.09,31.09,0,0,1,369.11,261.33Z"/><path class="cls-27" d="M337.91,230.14A31.13,31.13,0,0,1,360.66,240l14.15-14.15a51.15,51.15,0,0,0-73.38-.44l14.15,14.15A31.1,31.1,0,0,1,337.91,230.14Z"/><circle class="cls-28" cx="337.88" cy="260.37" r="3.24"/><line class="cls-29" x1="337.88" y1="260.37" x2="372.82" y2="244.46"/><polygon class="cls-4" points="518.09 251.53 521.13 255.47 526.53 261.1 531.94 266.5 536.89 270.78 538.92 271.91 539.93 272.36 540.83 272.36 541.96 272.47 543.09 272.47 544.44 272.02 545.68 271.57 546.8 270.78 548.27 269.32 549.28 267.86 550.18 266.39 551.08 265.6 552.21 265.15 553.22 264.93 554.91 264.93 556.49 265.26 558.4 266.39 559.87 267.29 572.48 276.3 572.82 277.54 572.82 278.55 572.37 280.36 571.92 282.16 570.9 284.07 569.44 286.44 567.98 288.35 565.61 290.27 562.79 291.5 560.65 292.41 558.51 292.86 554.91 293.08 552.1 293.08 549.05 292.29 546.13 291.62 543.54 290.72 534.53 286.89 528.33 282.95 522.14 278.22 516.62 272.92 511.21 266.95 505.92 259.41 502.54 253.89 499.5 247.13 497.93 242.29 497.14 236.55 496.69 231.59 497.93 226.19 499.73 223.26 501.75 221 505.02 218.87 508.4 217.29 509.98 216.5 512.57 216.39 515.04 218.64 524.62 233.51 525.18 234.86 524.95 236.1 524.62 237.56 523.15 239.25 520.67 241.39 518.65 243.19 517.52 244.66 517.3 245.56 517.3 246.91 517.18 248.37 517.52 249.72 518.09 251.53"/><path class="cls-30" d="M533.88,224.42a36.16,36.16,0,0,1,31.42,30.22"/><path class="cls-30" d="M536.67,234.55a27,27,0,0,1,10.73,6.37A26.73,26.73,0,0,1,554,251.06"/><path class="cls-30" d="M531.1,213.68a46.43,46.43,0,0,1,31.75,14.38,47.4,47.4,0,0,1,12.39,29.16"/><path class="cls-26" d="M709,224.58l-23,26.87a17.67,17.67,0,0,0,12.93,5.64h.35l16.69-22.84A18,18,0,0,0,709,224.58Z"/><path class="cls-26" d="M716.63,239.25a18,18,0,0,0-.72-5l-16.69,22.84A17.82,17.82,0,0,0,716.63,239.25Z"/><path class="cls-26" d="M698.87,221.4a17.84,17.84,0,0,0-12.93,30l23-26.87A17.58,17.58,0,0,0,698.87,221.4Z"/><path class="cls-8" d="M698.87,257.09a17.67,17.67,0,0,1-12.93-5.64l-3.28,3.83a22.63,22.63,0,0,0,13.05,6.59l3.51-4.79Z"/><path class="cls-8" d="M715.91,234.24a18,18,0,0,1,.72,5,17.82,17.82,0,0,1-17.41,17.83l-3.51,4.79a23.62,23.62,0,0,0,3.16.22,22.87,22.87,0,0,0,20.56-32.66Z"/><path class="cls-8" d="M681.11,239.25a17.83,17.83,0,0,1,17.76-17.85A17.58,17.58,0,0,1,709,224.58l3.27-3.83a22.81,22.81,0,0,0-29.57,34.53l3.28-3.83A17.81,17.81,0,0,1,681.11,239.25Z"/><polygon class="cls-8" points="699.71 239.9 718.07 218.46 719.43 217.01 720.97 215.84 722.23 215.12 723.23 215.03 724.04 215.3 724.05 215.72 719 224.31 703.61 247.95 702.63 249.19 701.52 250.24 700.73 250.7 699.75 250.83 698.64 250.76 697.92 250.5 697.26 250.11 696.61 249.52 695.95 248.86 695.23 247.88 687.11 236.49 686.13 235.24 686.13 234.39 686.59 233.47 687.11 232.82 687.7 232.1 688.55 231.31 689.4 230.85 690.45 230.26 691.37 230.26 692.38 230.59 699.71 239.9"/><path class="cls-26" d="M773.74,269.29l-23,26.87a17.66,17.66,0,0,0,12.93,5.65l.35,0L780.69,279A17.89,17.89,0,0,0,773.74,269.29Z"/><path class="cls-26" d="M781.41,284a17.93,17.93,0,0,0-.72-5L764,301.79A17.82,17.82,0,0,0,781.41,284Z"/><path class="cls-26" d="M763.65,266.11a17.84,17.84,0,0,0-12.93,30.05l23-26.87A17.58,17.58,0,0,0,763.65,266.11Z"/><path class="cls-31" d="M763.65,301.81a17.66,17.66,0,0,1-12.93-5.65L747.44,300a22.57,22.57,0,0,0,13,6.59l3.51-4.79Z"/><path class="cls-31" d="M780.69,279A17.82,17.82,0,0,1,764,301.79l-3.51,4.79a22.07,22.07,0,0,0,3.16.23,22.88,22.88,0,0,0,20.56-32.67Z"/><path class="cls-31" d="M745.89,284a17.83,17.83,0,0,1,17.76-17.85,17.58,17.58,0,0,1,10.09,3.18l3.27-3.82a22.58,22.58,0,0,0-13.36-4.36A22.86,22.86,0,0,0,747.44,300l3.28-3.83A17.85,17.85,0,0,1,745.89,284Z"/><polygon class="cls-31" points="757.6 272.74 764.82 280.44 785.01 261.92 786.06 261.32 787.95 261.13 788.6 261.27 789.3 261.85 789.76 262.49 789.76 263.12 767.98 284.63 773.96 291.84 774.18 292.63 774.32 293.35 774.25 294 773.96 294.72 773.53 295.3 772.88 295.88 771.94 296.24 771.15 296.38 770.5 296.23 763.51 288.81 756.38 295.37 755.58 295.66 754.64 295.51 754 295.23 753.42 294.79 752.91 294.14 752.48 293.21 752.34 292.27 752.55 291.55 759.98 284.2 753.56 276.63 753.49 275.48 753.56 274.25 754 273.46 754.79 272.95 755.65 272.66 756.45 272.45 757.6 272.74"/><line class="cls-32" x1="779.53" y1="212.81" x2="698.67" y2="302.49"/></g></svg>