<svg id="Layer_1_copy" data-name="Layer 1 copy" xmlns="http://www.w3.org/2000/svg" viewBox="0 0 971.35 756.28"><defs><style>.cls-1,.cls-21,.cls-48,.cls-57,.cls-7{fill:#fa1996;}.cls-1,.cls-2,.cls-5,.cls-6{opacity:0.3;}.cls-2,.cls-51,.cls-52,.cls-8{fill:#00be5f;}.cls-15,.cls-17,.cls-22,.cls-3,.cls-5{fill:#870aa0;}.cls-4,.cls-42,.cls-43,.cls-6{fill:#ff5f0a;}.cls-9{fill:#e0dddc;}.cls-10,.cls-18{fill:#fff;}.cls-11{font-size:16px;}.cls-11,.cls-18{font-family:SofiaPro-Bold, Sofia Pro;font-weight:700;}.cls-12{letter-spacing:-0.09em;}.cls-13{letter-spacing:-0.02em;}.cls-14{letter-spacing:0em;}.cls-15,.cls-17{stroke:#870aa0;}.cls-15,.cls-16,.cls-41,.cls-50,.cls-59,.cls-60,.cls-62{stroke-miterlimit:10;}.cls-15,.cls-16,.cls-41,.cls-50{stroke-width:8px;}.cls-16,.cls-41,.cls-50,.cls-56,.cls-59,.cls-60,.cls-62{fill:none;}.cls-16,.cls-21{stroke:#fa1996;}.cls-17,.cls-21,.cls-42,.cls-51{stroke-linecap:round;stroke-linejoin:round;stroke-width:11px;}.cls-18{font-size:33px;}.cls-19{letter-spacing:-0.02em;}.cls-20{letter-spacing:-0.02em;}.cls-22,.cls-43,.cls-48,.cls-52{font-size:14px;font-family:SofiaPro-Regular, Sofia Pro;}.cls-23{letter-spacing:-0.03em;}.cls-24{letter-spacing:-0.03em;}.cls-25{letter-spacing:-0.03em;}.cls-26{letter-spacing:0em;}.cls-27{letter-spacing:-0.01em;}.cls-28{letter-spacing:0em;}.cls-29{letter-spacing:-0.02em;}.cls-30{letter-spacing:-0.01em;}.cls-31{letter-spacing:-0.01em;}.cls-32{letter-spacing:-0.01em;}.cls-33{letter-spacing:-0.01em;}.cls-34{letter-spacing:0em;}.cls-35{letter-spacing:-0.01em;}.cls-36{letter-spacing:-0.04em;}.cls-37{letter-spacing:-0.03em;}.cls-38{letter-spacing:-0.01em;}.cls-39{letter-spacing:-0.02em;}.cls-40{letter-spacing:-0.07em;}.cls-41,.cls-42,.cls-60{stroke:#ff5f0a;}.cls-44{letter-spacing:0em;}.cls-45{letter-spacing:-0.03em;}.cls-46{letter-spacing:-0.03em;}.cls-47{letter-spacing:-0.01em;}.cls-49{letter-spacing:-0.02em;}.cls-50,.cls-51{stroke:#00be5f;}.cls-53{letter-spacing:-0.01em;}.cls-54{letter-spacing:0em;}.cls-55{letter-spacing:-0.01em;}.cls-57{opacity:0.7;}.cls-58{fill:#020001;}.cls-59{stroke:#020202;}.cls-59,.cls-60{stroke-width:3px;}.cls-61{fill:#e3273f;}.cls-62{stroke:#939292;stroke-width:5px;}</style></defs><path class="cls-1" d="M364.12,306.87a80.8,80.8,0,0,1,80.72,80.71h39A119.71,119.71,0,0,0,364.12,267.87h0A119.71,119.71,0,0,0,244.41,387.58h39a80.8,80.8,0,0,1,80.71-80.71"/><path class="cls-2" d="M764.83,305.89a80.81,80.81,0,0,1,80.72,80.72h39A119.72,119.72,0,0,0,764.83,266.89h0A119.72,119.72,0,0,0,645.11,386.61h39a80.81,80.81,0,0,1,80.72-80.72"/><path class="cls-3" d="M163.81,304.44a80.81,80.81,0,0,1,80.72,80.72h39A119.72,119.72,0,0,0,163.81,265.44h0A119.71,119.71,0,0,0,44.1,385.16h39a80.8,80.8,0,0,1,80.71-80.72"/><path class="cls-4" d="M564.11,304.44a80.81,80.81,0,0,1,80.71,80.72h39A119.72,119.72,0,0,0,564.11,265.44h0A119.72,119.72,0,0,0,444.39,385.16h39a80.81,80.81,0,0,1,80.72-80.72"/><path class="cls-5" d="M163.81,466.24A80.8,80.8,0,0,1,83.1,385.53h-39A119.71,119.71,0,0,0,163.81,505.24h0A119.72,119.72,0,0,0,283.53,385.53h-39a80.81,80.81,0,0,1-80.72,80.71"/><path class="cls-6" d="M564.2,465.44a80.81,80.81,0,0,1-80.71-80.72h-39A119.72,119.72,0,0,0,564.2,504.44h0A119.72,119.72,0,0,0,683.92,384.72h-39a80.81,80.81,0,0,1-80.72,80.72"/><path class="cls-7" d="M364.32,465.44a80.81,80.81,0,0,1-80.72-80.72h-39A119.72,119.72,0,0,0,364.32,504.44h0A119.72,119.72,0,0,0,484,384.72H445a80.81,80.81,0,0,1-80.71,80.72"/><path class="cls-8" d="M765,465.44a80.81,80.81,0,0,1-80.72-80.72h-39A119.72,119.72,0,0,0,765,504.44h0A119.72,119.72,0,0,0,884.74,384.72h-39A80.81,80.81,0,0,1,765,465.44"/><rect class="cls-9" x="116.55" y="334.26" width="91.48" height="102.39"/><rect class="cls-3" x="123.21" y="358.49" width="55.13" height="9.09"/><rect class="cls-10" x="123.21" y="370" width="79.72" height="3.34"/><rect class="cls-10" x="123.21" y="374.85" width="79.72" height="3.34"/><rect class="cls-10" x="122.95" y="379.61" width="79.72" height="3.34"/><rect class="cls-10" x="123.21" y="411.04" width="79.72" height="3.34"/><rect class="cls-3" x="123.21" y="404.45" width="60.32" height="4.1"/><rect class="cls-10" x="123.21" y="415.88" width="79.72" height="3.34"/><rect class="cls-10" x="122.95" y="420.65" width="79.72" height="3.34"/><rect class="cls-10" x="122.95" y="428.64" width="29.26" height="3.82"/><rect class="cls-10" x="172.98" y="428.64" width="29.26" height="3.82"/><rect class="cls-10" x="122.8" y="386.01" width="24.09" height="10.85"/><rect class="cls-10" x="150.6" y="386.01" width="24.09" height="10.85"/><rect class="cls-10" x="178.34" y="385.74" width="24.09" height="10.85"/><text class="cls-11" transform="translate(125.38 351.76)">ANSÖKAN</text><text class="cls-11" transform="translate(287.79 409.2)">KREDITUPP<tspan class="cls-12" x="85.05" y="0">L</tspan><tspan class="cls-13" x="91.65" y="0">Y</tspan><tspan class="cls-14" x="101.98" y="0">SNING</tspan></text><line class="cls-15" x1="164.47" y1="205.86" x2="164.47" y2="265.44"/><line class="cls-16" x1="364.23" y1="504.32" x2="364.23" y2="563.9"/><rect class="cls-17" x="83.46" y="151.01" width="162.35" height="49.48"/><text class="cls-18" transform="translate(115.26 184.82)"><tspan class="cls-19">S</tspan><tspan x="18.68" y="0">T</tspan><tspan class="cls-20" x="37.12" y="0">E</tspan><tspan x="55.57" y="0">G 1</tspan></text><rect class="cls-21" x="284.57" y="568.8" width="162.35" height="49.48"/><text class="cls-18" transform="translate(316.37 602.61)"><tspan class="cls-19">S</tspan><tspan x="18.68" y="0">T</tspan><tspan class="cls-20" x="37.12" y="0">E</tspan><tspan x="55.57" y="0">G 2</tspan></text><text class="cls-22" transform="translate(58.48 52.96)">Skic<tspan class="cls-23" x="25.19" y="0">k</tspan><tspan x="31.61" y="0">a in din låneansö</tspan><tspan class="cls-23" x="140.46" y="0">k</tspan><tspan x="146.89" y="0">an. I ansö</tspan><tspan class="cls-24" x="208.61" y="0">k</tspan><tspan x="215.04" y="0">an </tspan><tspan x="0" y="16.8">fylle</tspan><tspan class="cls-25" x="26.14" y="16.8">r</tspan><tspan class="cls-26" x="31.19" y="16.8" xml:space="preserve"> du i uppgif</tspan><tspan class="cls-27" x="103.23" y="16.8">t</tspan><tspan x="107.59" y="16.8">e</tspan><tspan class="cls-25" x="115.43" y="16.8">r</tspan><tspan x="120.48" y="16.8" xml:space="preserve"> om dit</tspan><tspan class="cls-28" x="164.32" y="16.8">t</tspan><tspan x="168.8" y="16.8"> </tspan><tspan class="cls-27" x="172.34" y="16.8">f</tspan><tspan x="176.8" y="16.8">ö</tspan><tspan class="cls-29" x="184.9" y="16.8">r</tspan><tspan class="cls-30" x="190.09" y="16.8">e</tspan><tspan class="cls-27" x="197.83" y="16.8">t</tspan><tspan x="202.19" y="16.8">ag, hu</tspan><tspan class="cls-25" x="242.25" y="16.8">r</tspan><tspan class="cls-26" x="247.31" y="16.8"> </tspan><tspan class="cls-31" x="0" y="33.6">m</tspan><tspan class="cls-32" x="12.19" y="33.6">y</tspan><tspan x="19.05" y="33.6">c</tspan><tspan class="cls-23" x="26.14" y="33.6">k</tspan><tspan class="cls-30" x="32.56" y="33.6">e</tspan><tspan class="cls-28" x="40.31" y="33.6">t</tspan><tspan x="44.79" y="33.6" xml:space="preserve"> du vill låna och </tspan><tspan class="cls-33" x="147.71" y="33.6">v</tspan><tspan x="154.6" y="33.6">ad lån</tspan><tspan class="cls-30" x="195.03" y="33.6">e</tspan><tspan class="cls-28" x="202.77" y="33.6">t</tspan><tspan x="207.25" y="33.6" xml:space="preserve"> s</tspan><tspan class="cls-24" x="216.89" y="33.6">k</tspan><tspan x="223.31" y="33.6">a </tspan><tspan x="0" y="50.4">a</tspan><tspan class="cls-27" x="8.5" y="50.4">n</tspan><tspan class="cls-33" x="16.41" y="50.4">v</tspan><tspan x="23.3" y="50.4">ändas till. Du beh</tspan><tspan class="cls-33" x="134.09" y="50.4">öv</tspan><tspan x="148.9" y="50.4">e</tspan><tspan class="cls-25" x="156.74" y="50.4">r</tspan><tspan x="161.8" y="50.4" xml:space="preserve"> bi</tspan><tspan class="cls-27" x="177.18" y="50.4">f</tspan><tspan x="181.65" y="50.4">oga dit</tspan><tspan class="cls-34" x="226.63" y="50.4">t</tspan><tspan class="cls-26" x="231.11" y="50.4"> </tspan><tspan x="0" y="67.2">senas</tspan><tspan class="cls-27" x="36.57" y="67.2">t</tspan><tspan x="40.92" y="67.2">e bo</tspan><tspan class="cls-35" x="68.91" y="67.2">k</tspan><tspan x="75.59" y="67.2">slu</tspan><tspan class="cls-28" x="93.06" y="67.2">t</tspan><tspan x="97.54" y="67.2" xml:space="preserve"> och</tspan><tspan class="cls-36" x="124.3" y="67.2">/</tspan><tspan x="130.4" y="67.2">elle</tspan><tspan class="cls-37" x="152.74" y="67.2">r</tspan><tspan x="157.79" y="67.2" xml:space="preserve"> delå</tspan><tspan class="cls-38" x="189.52" y="67.2">r</tspan><tspan x="194.85" y="67.2">ssiff</tspan><tspan class="cls-39" x="219.76" y="67.2">r</tspan><tspan x="224.95" y="67.2">o</tspan><tspan class="cls-40" x="233.04" y="67.2">r</tspan><tspan x="237.49" y="67.2">. </tspan></text><line class="cls-41" x1="563.67" y1="206.14" x2="563.67" y2="265.72"/><rect class="cls-42" x="482.67" y="151.29" width="162.35" height="49.48"/><text class="cls-18" transform="translate(514.46 185.1)"><tspan class="cls-19">S</tspan><tspan x="18.68" y="0">T</tspan><tspan class="cls-20" x="37.12" y="0">E</tspan><tspan x="55.57" y="0">G 3</tspan></text><text class="cls-43" transform="translate(457.69 53.24)"><tspan class="cls-27">E</tspan><tspan x="7.74" y="0">f</tspan><tspan class="cls-27" x="12.35" y="0">t</tspan><tspan class="cls-44" x="16.7" y="0">e</tspan><tspan class="cls-25" x="24.54" y="0">r</tspan><tspan class="cls-26" x="29.6" y="0" xml:space="preserve"> at</tspan><tspan class="cls-28" x="46.13" y="0">t</tspan><tspan x="50.61" y="0" xml:space="preserve"> vi gåt</tspan><tspan class="cls-34" x="89.58" y="0">t</tspan><tspan class="cls-26" x="94.07" y="0" xml:space="preserve"> igenom din ansö</tspan><tspan class="cls-23" x="203.46" y="0">k</tspan><tspan x="209.89" y="0">an </tspan><tspan class="cls-23" x="0" y="16.8">k</tspan><tspan class="cls-44" x="6.43" y="16.8">omme</tspan><tspan class="cls-25" x="47" y="16.8">r</tspan><tspan class="cls-26" x="52.05" y="16.8" xml:space="preserve"> en</tspan><tspan class="cls-45" x="71.48" y="16.8"> </tspan><tspan x="74.68" y="16.8">Almi-</tspan><tspan class="cls-39" x="109.13" y="16.8">r</tspan><tspan x="114.32" y="16.8">ådgi</tspan><tspan class="cls-33" x="143.18" y="16.8">v</tspan><tspan x="150.06" y="16.8">a</tspan><tspan class="cls-39" x="158.56" y="16.8">r</tspan><tspan x="163.76" y="16.8">e at</tspan><tspan class="cls-28" x="188.13" y="16.8">t</tspan><tspan class="cls-26" x="192.61" y="16.8"> </tspan><tspan class="cls-24" x="196.15" y="16.8">k</tspan><tspan x="202.58" y="16.8">o</tspan><tspan class="cls-38" x="210.67" y="16.8">n</tspan><tspan class="cls-27" x="218.64" y="16.8">t</tspan><tspan x="222.99" y="16.8">ak</tspan><tspan class="cls-27" x="238.29" y="16.8">t</tspan><tspan x="242.65" y="16.8">a </tspan><tspan x="0" y="33.6">dig.</tspan><tspan class="cls-46" x="23.77" y="33.6"> </tspan><tspan x="26.84" y="33.6">Tillsammans gö</tspan><tspan class="cls-25" x="126.56" y="33.6">r</tspan><tspan x="131.61" y="33.6" xml:space="preserve"> vi då en beh</tspan><tspan class="cls-33" x="213.47" y="33.6">o</tspan><tspan class="cls-27" x="221.39" y="33.6">v</tspan><tspan x="228.31" y="33.6">s-</tspan><tspan x="0" y="50.4">anal</tspan><tspan class="cls-47" x="28.38" y="50.4">y</tspan><tspan class="cls-44" x="35.27" y="50.4">s dä</tspan><tspan class="cls-25" x="61.91" y="50.4">r</tspan><tspan x="66.96" y="50.4" xml:space="preserve"> vi gå</tspan><tspan class="cls-25" x="101.44" y="50.4">r</tspan><tspan class="cls-26" x="106.5" y="50.4" xml:space="preserve"> igenom din ansö</tspan><tspan class="cls-23" x="215.89" y="50.4">k</tspan><tspan x="222.32" y="50.4">an </tspan><tspan x="0" y="67.2">och dit</tspan><tspan class="cls-28" x="43.11" y="67.2">t</tspan><tspan x="47.59" y="67.2"> </tspan><tspan class="cls-27" x="51.13" y="67.2">f</tspan><tspan x="55.59" y="67.2">ö</tspan><tspan class="cls-39" x="63.69" y="67.2">r</tspan><tspan class="cls-30" x="68.88" y="67.2">e</tspan><tspan class="cls-27" x="76.62" y="67.2">t</tspan><tspan x="80.98" y="67.2">ags mål och utmaninga</tspan><tspan class="cls-40" x="231.88" y="67.2">r</tspan><tspan class="cls-26" x="236.33" y="67.2">. </tspan></text><text class="cls-48" transform="translate(263.73 654.66)">Vi gå<tspan class="cls-25" x="31.65" y="0">r</tspan><tspan x="36.71" y="0" xml:space="preserve"> igenom din ansö</tspan><tspan class="cls-24" x="146.1" y="0">k</tspan><tspan x="152.53" y="0">an och se</tspan><tspan class="cls-25" x="213.31" y="0">r</tspan><tspan x="218.37" y="0"> </tspan><tspan x="0" y="16.8">at</tspan><tspan class="cls-34" x="12.99" y="16.8">t</tspan><tspan class="cls-26" x="17.47" y="16.8" xml:space="preserve"> alla uppgif</tspan><tspan class="cls-27" x="89.74" y="16.8">t</tspan><tspan x="94.09" y="16.8">e</tspan><tspan class="cls-25" x="101.93" y="16.8">r</tspan><tspan x="106.99" y="16.8" xml:space="preserve"> finns med.</tspan><tspan class="cls-49" x="176.4" y="16.8"> </tspan><tspan x="179.66" y="16.8">Vi </tspan><tspan class="cls-47" x="194.3" y="16.8">t</tspan><tspan class="cls-26" x="198.66" y="16.8">a</tspan><tspan class="cls-25" x="207.16" y="16.8">r</tspan><tspan x="212.21" y="16.8"> </tspan><tspan x="0" y="33.6">en k</tspan><tspan class="cls-39" x="26.24" y="33.6">r</tspan><tspan x="31.43" y="33.6">edituppl</tspan><tspan class="cls-47" x="84.01" y="33.6">y</tspan><tspan x="90.9" y="33.6">sning på </tspan><tspan class="cls-47" x="149.03" y="33.6">f</tspan><tspan x="153.49" y="33.6">ö</tspan><tspan class="cls-39" x="161.59" y="33.6">r</tspan><tspan class="cls-30" x="166.78" y="33.6">e</tspan><tspan class="cls-27" x="174.52" y="33.6">t</tspan><tspan x="178.88" y="33.6">ag</tspan><tspan class="cls-30" x="195.89" y="33.6">e</tspan><tspan class="cls-28" x="203.63" y="33.6">t</tspan><tspan x="208.11" y="33.6"> </tspan><tspan x="0" y="50.4">och </tspan><tspan class="cls-24" x="26.77" y="50.4">k</tspan><tspan x="33.19" y="50.4">o</tspan><tspan class="cls-38" x="41.29" y="50.4">n</tspan><tspan class="cls-27" x="49.25" y="50.4">t</tspan><tspan x="53.61" y="50.4">ak</tspan><tspan class="cls-27" x="68.91" y="50.4">t</tspan><tspan x="73.26" y="50.4">a</tspan><tspan class="cls-25" x="81.76" y="50.4">r</tspan><tspan x="86.81" y="50.4" xml:space="preserve"> dig om någ</tspan><tspan class="cls-31" x="163.27" y="50.4">o</tspan><tspan class="cls-28" x="171.23" y="50.4">t</tspan><tspan x="175.71" y="50.4" xml:space="preserve"> beh-</tspan><tspan class="cls-33" x="0" y="67.2">öv</tspan><tspan x="14.81" y="67.2">e</tspan><tspan class="cls-25" x="22.65" y="67.2">r</tspan><tspan x="27.71" y="67.2"> </tspan><tspan class="cls-23" x="31.25" y="67.2">k</tspan><tspan x="37.67" y="67.2">ompl</tspan><tspan class="cls-30" x="69.93" y="67.2">e</tspan><tspan x="77.67" y="67.2">t</tspan><tspan class="cls-27" x="82.17" y="67.2">t</tspan><tspan x="86.52" y="67.2">e</tspan><tspan class="cls-39" x="94.36" y="67.2">r</tspan><tspan x="99.55" y="67.2">as.</tspan></text><line class="cls-50" x1="765.4" y1="504.52" x2="765.4" y2="564.09"/><rect class="cls-51" x="685.74" y="569" width="162.35" height="49.48"/><text class="cls-18" transform="translate(717.54 602.81)"><tspan class="cls-19">S</tspan><tspan x="18.68" y="0">T</tspan><tspan class="cls-20" x="37.12" y="0">E</tspan><tspan x="55.57" y="0">G 4</tspan></text><text class="cls-52" transform="translate(664.89 654.86)"><tspan class="cls-53">N</tspan><tspan x="9.48" y="0">ä</tspan><tspan class="cls-25" x="17.98" y="0">r</tspan><tspan class="cls-26" x="23.03" y="0" xml:space="preserve"> all i</tspan><tspan class="cls-38" x="48.61" y="0">n</tspan><tspan class="cls-47" x="56.57" y="0">f</tspan><tspan x="61.04" y="0">ormation finns på pla</tspan><tspan class="cls-54" x="197.55" y="0">t</tspan><tspan x="201.99" y="0">s </tspan><tspan x="0" y="16.8">behandlas dit</tspan><tspan class="cls-28" x="87.26" y="16.8">t</tspan><tspan x="91.74" y="16.8" xml:space="preserve"> ä</tspan><tspan class="cls-39" x="103.78" y="16.8">r</tspan><tspan x="108.97" y="16.8">end</tspan><tspan class="cls-34" x="133.38" y="16.8">e</tspan><tspan class="cls-26" x="141.2" y="16.8">. Så snar</tspan><tspan class="cls-28" x="196.22" y="16.8">t</tspan><tspan x="200.7" y="16.8"> </tspan><tspan x="0" y="33.6">ä</tspan><tspan class="cls-39" x="8.5" y="33.6">r</tspan><tspan x="13.69" y="33.6">end</tspan><tspan class="cls-30" x="38.09" y="33.6">e</tspan><tspan class="cls-28" x="45.84" y="33.6">t</tspan><tspan x="50.32" y="33.6" xml:space="preserve"> ä</tspan><tspan class="cls-37" x="62.36" y="33.6">r</tspan><tspan x="67.41" y="33.6" xml:space="preserve"> beslu</tspan><tspan class="cls-27" x="104.78" y="33.6">t</tspan><tspan x="109.13" y="33.6">a</tspan><tspan class="cls-28" x="117.63" y="33.6">t</tspan><tspan x="122.11" y="33.6"> </tspan><tspan class="cls-27" x="125.65" y="33.6">f</tspan><tspan x="130.12" y="33.6">å</tspan><tspan class="cls-25" x="138.61" y="33.6">r</tspan><tspan class="cls-26" x="143.67" y="33.6" xml:space="preserve"> du </tspan><tspan class="cls-55" x="167.31" y="33.6">e</tspan><tspan x="175.05" y="33.6">t</tspan><tspan class="cls-28" x="179.55" y="33.6">t</tspan><tspan x="184.03" y="33.6"> </tspan><tspan x="0" y="50.4">bes</tspan><tspan class="cls-23" x="22.44" y="50.4">k</tspan><tspan x="28.87" y="50.4">ed. </tspan></text><path class="cls-56" d="M364.09,358.23a31.1,31.1,0,0,0-22.33,9.45l22.76,22.75,22.32-22.32A31.14,31.14,0,0,0,364.09,358.23Z"/><path class="cls-1" d="M312.89,389.43h20a31.06,31.06,0,0,1,8.87-21.75l-14.15-14.16A51,51,0,0,0,312.89,389.43Z"/><path class="cls-7" d="M395.28,389.43h20A51,51,0,0,0,401,354l-14.15,14.15A31.11,31.11,0,0,1,395.28,389.43Z"/><path class="cls-57" d="M364.09,358.23a31.14,31.14,0,0,1,22.75,9.88L401,354a51.15,51.15,0,0,0-73.38-.44l14.15,14.16A31.1,31.1,0,0,1,364.09,358.23Z"/><circle class="cls-58" cx="364.05" cy="388.47" r="3.24"/><line class="cls-59" x1="364.05" y1="388.47" x2="399" y2="372.56"/><polygon class="cls-4" points="544.26 379.62 547.3 383.56 552.71 389.19 558.11 394.6 563.07 398.88 565.1 400 566.11 400.45 567.01 400.45 568.14 400.57 569.26 400.57 570.61 400.12 571.85 399.67 572.98 398.88 574.44 397.41 575.46 395.95 576.36 394.49 577.26 393.7 578.38 393.25 579.4 393.02 581.09 393.02 582.66 393.36 584.58 394.49 586.04 395.39 598.66 404.4 598.99 405.63 598.99 406.65 598.54 408.45 598.09 410.25 597.08 412.17 595.62 414.53 594.15 416.45 591.79 418.36 588.97 419.6 586.83 420.5 584.69 420.95 581.09 421.18 578.27 421.18 575.23 420.39 572.3 419.71 569.71 418.81 560.7 414.98 554.51 411.04 548.32 406.31 542.8 401.02 537.39 395.05 532.1 387.5 528.72 381.99 525.68 375.23 524.1 370.38 523.31 364.64 522.86 359.69 524.1 354.28 525.9 351.35 527.93 349.1 531.2 346.96 534.58 345.38 536.15 344.6 538.74 344.48 541.22 346.74 550.79 361.6 551.36 362.95 551.13 364.19 550.79 365.65 549.33 367.34 546.85 369.48 544.82 371.29 543.7 372.75 543.47 373.65 543.47 375 543.36 376.47 543.7 377.82 544.26 379.62"/><path class="cls-60" d="M560.06,352.52a36.11,36.11,0,0,1,31.41,30.21"/><path class="cls-60" d="M562.84,362.65a26.82,26.82,0,0,1,17.3,16.5"/><path class="cls-60" d="M557.28,341.78A46.37,46.37,0,0,1,589,356.15a47.34,47.34,0,0,1,12.38,29.16"/><path class="cls-56" d="M735.14,352.67l-23,26.87a17.64,17.64,0,0,0,12.93,5.65l.34,0,16.69-22.83A17.87,17.87,0,0,0,735.14,352.67Z"/><path class="cls-56" d="M742.81,367.34a17.57,17.57,0,0,0-.73-5l-16.69,22.83A17.82,17.82,0,0,0,742.81,367.34Z"/><path class="cls-56" d="M725.05,349.49a17.83,17.83,0,0,0-12.93,30.05l23-26.87A17.6,17.6,0,0,0,725.05,349.49Z"/><path class="cls-8" d="M725.05,385.19a17.64,17.64,0,0,1-12.93-5.65l-3.28,3.84a22.69,22.69,0,0,0,13,6.59l3.5-4.8Z"/><path class="cls-8" d="M742.08,362.34a17.57,17.57,0,0,1,.73,5,17.82,17.82,0,0,1-17.42,17.83l-3.5,4.8a23.39,23.39,0,0,0,3.16.22,22.86,22.86,0,0,0,20.55-32.67Z"/><path class="cls-8" d="M707.28,367.34a17.83,17.83,0,0,1,17.77-17.85,17.6,17.6,0,0,1,10.09,3.18l3.27-3.82a22.58,22.58,0,0,0-13.36-4.36,22.86,22.86,0,0,0-16.21,38.89l3.28-3.84A17.8,17.8,0,0,1,707.28,367.34Z"/><polygon class="cls-8" points="725.88 368 744.25 346.56 745.61 345.11 747.14 343.93 748.41 343.21 749.4 343.12 750.22 343.39 750.22 343.82 745.18 352.4 729.79 376.04 728.81 377.29 727.7 378.33 726.91 378.79 725.93 378.92 724.81 378.86 724.09 378.6 723.44 378.2 722.78 377.61 722.13 376.96 721.41 375.98 713.29 364.58 712.3 363.34 712.3 362.49 712.76 361.57 713.29 360.91 713.88 360.19 714.73 359.41 715.58 358.95 716.63 358.36 717.54 358.36 718.55 358.68 725.88 368"/><path class="cls-56" d="M799.92,397.38l-23,26.87a17.64,17.64,0,0,0,12.93,5.65l.34,0,16.7-22.83A18,18,0,0,0,799.92,397.38Z"/><path class="cls-56" d="M807.59,412.05a18,18,0,0,0-.72-5l-16.7,22.83A17.81,17.81,0,0,0,807.59,412.05Z"/><path class="cls-56" d="M789.83,394.21a17.84,17.84,0,0,0-12.93,30l23-26.87A17.59,17.59,0,0,0,789.83,394.21Z"/><path class="cls-61" d="M789.83,429.9a17.64,17.64,0,0,1-12.93-5.65l-3.28,3.84a22.69,22.69,0,0,0,13,6.59l3.5-4.8Z"/><path class="cls-61" d="M806.87,407.05a17.82,17.82,0,0,1-16.7,22.83l-3.5,4.8a23.51,23.51,0,0,0,3.16.22,22.86,22.86,0,0,0,20.55-32.66Z"/><path class="cls-61" d="M772.07,412.05a17.81,17.81,0,0,1,17.76-17.84,17.59,17.59,0,0,1,10.09,3.17l3.27-3.82a22.57,22.57,0,0,0-13.36-4.35,22.86,22.86,0,0,0-16.21,38.88l3.28-3.84A17.79,17.79,0,0,1,772.07,412.05Z"/><polygon class="cls-61" points="783.78 400.83 791 408.54 811.18 390.01 812.24 389.41 814.12 389.23 814.77 389.37 815.48 389.95 815.93 390.58 815.93 391.22 794.16 412.73 800.14 419.93 800.36 420.73 800.5 421.45 800.43 422.1 800.14 422.82 799.71 423.39 799.06 423.97 798.12 424.33 797.33 424.48 796.68 424.32 789.69 416.91 782.56 423.46 781.75 423.75 780.82 423.61 780.17 423.32 779.6 422.89 779.09 422.24 778.66 421.3 778.51 420.37 778.73 419.64 786.15 412.29 779.74 404.72 779.67 403.57 779.74 402.35 780.17 401.55 780.97 401.05 781.83 400.76 782.62 400.54 783.78 400.83"/><line class="cls-62" x1="805.7" y1="340.91" x2="724.84" y2="430.59"/></svg>