<svg xmlns="http://www.w3.org/2000/svg" viewBox="0 0 284.13 756.28"><defs><style>.cls-1,.cls-4{fill:#fa1996;}.cls-1,.cls-3{opacity:0.3;}.cls-2,.cls-3,.cls-8,.cls-9{fill:#870aa0;}.cls-5{fill:#e0dddc;}.cls-10,.cls-6{fill:#fff;}.cls-7{font-size:16px;}.cls-10,.cls-7{font-family:SofiaPro-Bold, Sofia Pro;font-weight:700;}.cls-8,.cls-9{stroke:#870aa0;}.cls-8{stroke-miterlimit:10;stroke-width:8px;}.cls-9{stroke-linecap:round;stroke-linejoin:round;stroke-width:11px;}.cls-10{font-size:33px;}.cls-11{letter-spacing:-0.02em;}.cls-12{letter-spacing:-0.02em;}</style></defs><g id="Layer_3" data-name="Layer 3"><path class="cls-1" d="M385.38,304.41a80.81,80.81,0,0,1,80.72,80.72h39A119.72,119.72,0,0,0,385.38,265.41h0A119.72,119.72,0,0,0,265.67,385.13h39a80.81,80.81,0,0,1,80.71-80.72"/><path class="cls-2" d="M185.07,302a80.81,80.81,0,0,1,80.72,80.71h39A119.72,119.72,0,0,0,185.07,263h0A119.72,119.72,0,0,0,65.35,382.7h39A80.81,80.81,0,0,1,185.07,302"/><path class="cls-3" d="M185.07,463.79a80.81,80.81,0,0,1-80.72-80.72h-39A119.72,119.72,0,0,0,185.07,502.79h0A119.72,119.72,0,0,0,304.79,383.07h-39a80.81,80.81,0,0,1-80.72,80.72"/><path class="cls-4" d="M385.58,463a80.81,80.81,0,0,1-80.72-80.72h-39A119.72,119.72,0,0,0,385.58,502h0A119.72,119.72,0,0,0,505.29,382.26h-39A80.81,80.81,0,0,1,385.58,463"/><rect class="cls-5" x="137.81" y="331.81" width="91.48" height="102.39"/><rect class="cls-2" x="144.47" y="356.04" width="55.13" height="9.09"/><rect class="cls-6" x="144.47" y="367.55" width="79.72" height="3.34"/><rect class="cls-6" x="144.47" y="372.4" width="79.72" height="3.34"/><rect class="cls-6" x="144.2" y="377.16" width="79.72" height="3.34"/><rect class="cls-6" x="144.47" y="408.58" width="79.72" height="3.34"/><rect class="cls-2" x="144.47" y="402" width="60.32" height="4.1"/><rect class="cls-6" x="144.47" y="413.43" width="79.72" height="3.34"/><rect class="cls-6" x="144.2" y="418.2" width="79.72" height="3.34"/><rect class="cls-6" x="144.2" y="426.19" width="29.26" height="3.82"/><rect class="cls-6" x="194.24" y="426.19" width="29.26" height="3.82"/><rect class="cls-6" x="144.06" y="383.56" width="24.09" height="10.85"/><rect class="cls-6" x="171.86" y="383.56" width="24.09" height="10.85"/><rect class="cls-6" x="199.6" y="383.29" width="24.09" height="10.85"/><text class="cls-7" transform="translate(146.64 349.31)">ANSÖKAN</text><line class="cls-8" x1="185.73" y1="203.41" x2="185.73" y2="262.99"/><rect class="cls-9" x="104.72" y="148.56" width="162.35" height="49.48"/><text class="cls-10" transform="translate(136.52 182.37)"><tspan class="cls-11">S</tspan><tspan x="18.68" y="0">T</tspan><tspan class="cls-12" x="37.12" y="0">E</tspan><tspan x="55.57" y="0">G 1</tspan></text></g></svg>