<svg id="Layer_1_copy" data-name="Layer 1 copy" xmlns="http://www.w3.org/2000/svg" viewBox="0 0 93.94 95.35"><defs><style>.cls-1{fill:#ff5f0a;}.cls-2{fill:none;stroke:#ff5f0a;stroke-miterlimit:10;stroke-width:3px;}</style></defs><polygon class="cls-1" points="27.96 48.2 31 52.14 36.41 57.77 41.81 63.18 46.77 67.46 48.79 68.58 49.81 69.03 50.71 69.03 51.83 69.14 52.96 69.14 54.31 68.69 55.55 68.25 56.68 67.46 58.14 65.99 59.15 64.53 60.05 63.06 60.96 62.28 62.08 61.83 63.1 61.6 64.78 61.6 66.36 61.94 68.28 63.06 69.74 63.97 82.35 72.97 82.69 74.21 82.69 75.23 82.24 77.03 81.79 78.83 80.78 80.75 79.31 83.11 77.85 85.03 75.48 86.94 72.67 88.18 70.53 89.08 68.39 89.53 64.78 89.75 61.97 89.75 58.93 88.97 56 88.29 53.41 87.39 44.4 83.56 38.21 79.62 32.01 74.89 26.49 69.6 21.09 63.63 15.79 56.08 12.42 50.56 9.38 43.81 7.8 38.96 7.01 33.22 6.56 28.26 7.8 22.86 9.6 19.93 11.63 17.68 14.89 15.54 18.27 13.96 19.85 13.17 22.44 13.06 24.92 15.31 34.49 30.18 35.05 31.53 34.83 32.77 34.49 34.23 33.03 35.92 30.55 38.06 28.52 39.86 27.39 41.33 27.17 42.23 27.17 43.58 27.06 45.05 27.39 46.4 27.96 48.2"/><path class="cls-2" d="M43.76,21.09A36.13,36.13,0,0,1,75.17,51.31"/><path class="cls-2" d="M46.54,31.23a26.82,26.82,0,0,1,17.3,16.5"/><path class="cls-2" d="M41,10.35A46.45,46.45,0,0,1,72.73,24.73,47.32,47.32,0,0,1,85.11,53.89"/></svg>